<svg enable-background="new 0 0 128 128" viewBox="0 0 128 128" xmlns="http://www.w3.org/2000/svg" xmlns:xlink="http://www.w3.org/1999/xlink"><linearGradient id="a" gradientUnits="userSpaceOnUse" x1="64" x2="64" y1="4.2679" y2="111.72"><stop offset=".0079465" stop-color="#ff9800"/><stop offset="1" stop-color="#ef6c00"/></linearGradient><linearGradient id="b" gradientUnits="userSpaceOnUse" x1="19.096" x2="104.54" y1="115.96" y2="115.96"><stop offset=".0102" stop-color="#bdbdbd"/><stop offset=".9869" stop-color="#f5f5f5"/></linearGradient><clipPath id="c"><path d="m112.03 111.14h-90.06c-3.31 0-6-2.69-6-6v-95.14c0-3.31 2.69-6 6-6h90.05v107.14z"/></clipPath><path d="m108.82 124h-86.85c-3.31 0-6-2.69-6-6v-91.95c0-3.31 2.69-6 6-6h86.85z" fill="#424242"/><path d="m112.03 111.14h-90.06c-3.31 0-6-2.69-6-6v-95.14c0-3.31 2.69-6 6-6h90.05v107.14z" fill="url(#a)"/><path d="m109.03 7v101.14h-.2c-1.66 0-3 1.34-3 3v9.86h-83.43c-1.89 0-3.43-1.54-3.43-3.43v-107.14c0-1.89 1.54-3.43 3.43-3.43h86.63m3-3h-89.63c-3.55 0-6.43 2.88-6.43 6.43v107.14c0 3.55 2.88 6.43 6.43 6.43h86.42v-12.86h3.2v-107.14h.01z" fill="#424242" opacity=".2"/><g fill="#d96200"><path d="m89.06 21.34h-46.19c-1.03 0-1.71.7-1.71 1.75v26.3c0 1.05.68 1.75 1.71 1.75h46.18c1.03 0 1.71-.7 1.71-1.75v-26.3c.01-1.05-.68-1.75-1.7-1.75zm-1.72 26.3h-42.76v-22.79h42.76z"/><path d="m58.27 35.37h15.39c1.03 0 1.71-.7 1.71-1.75s-.68-1.75-1.71-1.75h-15.39c-1.03 0-1.71.7-1.71 1.75 0 1.04.68 1.75 1.71 1.75z"/><path d="m53.14 42.38h25.66c1.03 0 1.71-.7 1.71-1.75s-.68-1.75-1.71-1.75h-25.66c-1.03 0-1.71.7-1.71 1.75s.68 1.75 1.71 1.75z"/></g><path d="m104.54 120.79h-80.94c-2.47 0-4.5-2.03-4.5-4.5v-.64c0-2.47 2.02-4.5 4.5-4.5h80.94z" fill="url(#b)"/><path clip-path="url(#c)" d="m10.25-.29h12.86v128.57h-12.86z" fill="#424242"/></svg>