<svg enable-background="new 0 0 512 512" viewBox="0 0 512 512" xmlns="http://www.w3.org/2000/svg"><path d="m511.96 425.623c-.076.14-.204.238-.287.374-6.971 18.262-24.524 31.291-45.241 31.291h-420.721c-1.579 0-3.044-.37-4.584-.517h-.612c-.159-.019-.287-.102-.446-.121-10.136-1.193-19.259-5.374-26.495-11.827-.136-.121-.317-.177-.453-.298l.083-.064c-1.707-1.556-3.482-3.051-4.955-4.837-3.452-4.184-6.216-8.965-8.119-14.158-.03-.042-.068-.072-.091-.117l.045-.038c-1.873-5.174 220.659-173.311 220.659-173.311 27.59-20.913 42.265-20.589 70.164 0 0 0 222.857 168.273 220.916 173.519z" fill="#96a9b2"/><path d="m256.133 232.687-254.917 191.187v-270.849c0-26.4 21.397-47.797 47.797-47.797h414.24c26.4 0 47.797 21.397 47.797 47.797v270.849z" fill="#b9c5c6"/><path d="m3.984 136.661c.074-.138.201-.234.283-.368 6.864-17.981 24.146-30.809 44.543-30.809h414.238c1.554 0 2.997.364 4.514.509h.602c.156.019.283.1.439.119 9.979 1.175 18.963 5.291 26.086 11.645.134.119.312.175.446.294l-.082.063c1.681 1.532 3.428 3.004 4.878 4.763 3.398 4.12 6.12 8.827 7.994 13.939.03.041.067.071.089.115l-.045.037c1.844 5.094-217.258 170.64-217.258 170.64-27.165 20.591-41.613 20.271-69.083 0 0 0-219.422-165.68-217.511-170.845z" fill="#dce2e2"/></svg>